<?xml version="1.0" encoding="utf-8"?>
<svg version="1.1" xmlns:xlink="http://www.w3.org/1999/xlink" width="35px" height="35px" xmlns="http://www.w3.org/2000/svg">
  <g transform="matrix(1 0 0 1 -877 -130 )">
    <path d="M 33.61002604166667 10.709635416666668  C 34.53667534722222 12.866753472222223  35 15.130208333333332  35 17.5  C 35 19.869791666666664  34.53667534722222 22.133246527777775  33.61002604166667 24.290364583333336  C 32.683376736111114 26.44748263888889  31.43771701388889 28.30837673611111  29.873046875 29.873046875  C 28.308376736111114 31.43771701388889  26.44748263888889 32.68337673611111  24.290364583333332 33.61002604166667  C 22.133246527777782 34.53667534722222  19.869791666666668 35  17.5 35  C 14.887152777777779 35  12.403428819444445 34.44932725694444  10.048828125 33.34798177083333  C 7.694227430555555 32.24663628472222  5.689019097222222 30.693359375  4.033203125 28.688151041666668  C 3.9268663194444446 28.536241319444443  3.8774956597222228 28.365342881944443  3.8850911458333335 28.175455729166668  C 3.8926866319444446 27.98556857638889  3.9572482638888893 27.82986111111111  4.078776041666666 27.708333333333332  L 7.200520833333333 24.563802083333336  C 7.352430555555555 24.427083333333336  7.542317708333333 24.358723958333336  7.770182291666667 24.358723958333336  C 8.013237847222223 24.389105902777775  8.187934027777779 24.48025173611111  8.294270833333332 24.632161458333336  C 9.403211805555557 26.075303819444446  10.762803819444445 27.19184027777778  12.373046875 27.981770833333332  C 13.983289930555557 28.77170138888889  15.692274305555557 29.166666666666668  17.5 29.166666666666668  C 19.079861111111114 29.166666666666668  20.587565104166668 28.859049479166668  22.023111979166668 28.243815104166668  C 23.458658854166668 27.628580729166668  24.700520833333332 26.796875  25.748697916666668 25.748697916666664  C 26.796875 24.700520833333336  27.628580729166668 23.458658854166664  28.243815104166668 22.023111979166664  C 28.859049479166668 20.587565104166664  29.166666666666668 19.07986111111111  29.166666666666668 17.5  C 29.166666666666668 15.920138888888888  28.859049479166668 14.412434895833332  28.243815104166668 12.976888020833332  C 27.628580729166668 11.541341145833332  26.796875 10.299479166666668  25.748697916666668 9.251302083333332  C 24.700520833333332 8.203125  23.458658854166668 7.371419270833332  22.023111979166668 6.756184895833332  C 20.587565104166668 6.140950520833332  19.079861111111114 5.833333333333332  17.5 5.833333333333332  C 16.011284722222225 5.833333333333332  14.583333333333334 6.102973090277778  13.216145833333334 6.642252604166668  C 11.848958333333334 7.181532118055551  10.633680555555557 7.952473958333332  9.5703125 8.955078125  L 12.692057291666666 12.099609375  C 13.162977430555557 12.555338541666668  13.26931423611111 13.079427083333332  13.011067708333334 13.671875  C 12.752821180555557 14.279513888888891  12.3046875 14.583333333333332  11.666666666666666 15  L 1.4583333333333333 15  C 1.0633680555555556 14.583333333333332  0.7215711805555556 14.439019097222223  0.4329427083333333 14.150390625  C 0.1443142361111111 13.861762152777777  0 13.519965277777777  0 13.125  L 0 2.916666666666668  C 0 2.278645833333332  0.3038194444444444 1.8305121527777772  0.9114583333333334 1.572265625  C 1.50390625 1.3140190972222188  2.027994791666667 1.4203559027777772  2.4837239583333335 1.8912760416666679  L 5.445963541666667 4.830729166666668  C 7.0713975694444455 3.2964409722222188  8.92849392361111 2.107747395833332  11.017252604166666 1.2646484375  C 13.106011284722225 0.42154947916666796  15.266927083333334 0  17.5 0  C 19.869791666666668 0  22.133246527777782 0.46332465277777735  24.290364583333332 1.3899739583333321  C 26.44748263888889 2.3166232638888866  28.308376736111114 3.5622829861111094  29.873046875 5.126953125  C 31.43771701388889 6.691623263888887  32.683376736111114 8.552517361111109  33.61002604166667 10.709635416666668  Z M 20.211588541666668 10.413411458333332  C 20.348307291666668 10.550130208333332  20.416666666666668 10.724826388888888  20 10.9375  L 20 21.145833333333336  C 20.416666666666668 21.358506944444446  20.348307291666668 21.533203125  20.211588541666668 21.669921875  C 20.074869791666668 21.806640625  19.900173611111114 21.875  19.6875 21.875  L 12.395833333333334 21.875  C 12.183159722222225 21.875  12.008463541666666 21.806640625  11.871744791666666 21.669921875  C 11.735026041666666 21.533203125  11.666666666666666 21.358506944444446  11.666666666666666 21.145833333333336  L 11.666666666666666 19.6875  C 11.666666666666666 19.47482638888889  11.735026041666666 19.300130208333336  11.871744791666666 19.163411458333336  C 12.008463541666666 19.026692708333336  12.183159722222225 18.958333333333336  12.395833333333334 18.958333333333336  L 17.5 18.958333333333336  L 17.5 10.9375  C 17.5 10.724826388888888  17.568359375 10.550130208333332  17.705078125 10.413411458333332  C 17.841796875000004 10.276692708333332  18.016493055555557 10.208333333333332  18.229166666666668 10.208333333333332  L 19.6875 10.208333333333332  C 19.900173611111114 10.208333333333332  20.074869791666668 10.276692708333332  20.211588541666668 10.413411458333332  Z " fill-rule="nonzero" fill="#ffffff" stroke="none" transform="matrix(1 0 0 1 877 130 )" />
  </g>
</svg>