<?xml version="1.0" encoding="utf-8"?>
<svg version="1.1" xmlns:xlink="http://www.w3.org/1999/xlink" width="14px" height="14px" xmlns="http://www.w3.org/2000/svg">
  <g transform="matrix(1 0 0 1 -399 -1119 )">
    <path d="M 4.28125 0.5546874999999998  C 5.145833333333334 0.18489583333333326  6.052083333333334 0  7 0  C 7.947916666666667 0  8.854166666666668 0.18489583333333326  9.71875 0.5546874999999998  C 10.583333333333334 0.9244791666666663  11.328125 1.421875  11.953125 2.046874999999999  C 12.578125000000002 2.671875  13.075520833333336 3.416666666666665  13.4453125 4.28125  C 13.815104166666668 5.145833333333332  14 6.052083333333333  14 7  C 14 7.942708333333334  13.81640625 8.846354166666666  13.44921875 9.7109375  C 13.08203125 10.575520833333336  12.5859375 11.3203125  11.9609375 11.9453125  C 11.3359375 12.5703125  10.591145833333334 13.069010416666666  9.7265625 13.44140625  C 8.861979166666668 13.813802083333334  7.953124999999999 14  7 14  C 6.046875 14  5.138020833333334 13.815104166666666  4.2734375 13.4453125  C 3.408854166666667 13.075520833333334  2.6653645833333335 12.576822916666666  2.04296875 11.94921875  C 1.4205729166666665 11.321614583333332  0.9244791666666667 10.576822916666666  0.5546875 9.71484375  C 0.18489583333333331 8.852864583333332  0 7.947916666666666  0 7  C 0 6.052083333333333  0.18489583333333331 5.145833333333332  0.5546875 4.28125  C 0.9244791666666667 3.416666666666665  1.421875 2.671875  2.046875 2.046874999999999  C 2.671875 1.421875  3.416666666666667 0.9244791666666663  4.28125 0.5546874999999998  Z M 9.4453125 8  C 10.6953125 8  11.4921875 8.8515625  11.8359375 10.5546875  C 12.611979166666668 9.486979166666668  13 8.302083333333332  13 7  C 13 6.1875  12.841145833333334 5.411458333333332  12.5234375 4.671874999999999  C 12.205729166666668 3.932291666666666  11.778645833333336 3.294270833333332  11.2421875 2.757812499999999  C 10.705729166666668 2.221354166666667  10.067708333333334 1.7942708333333326  9.328125 1.4765625  C 8.588541666666668 1.1588541666666659  7.8125 0.9999999999999996  7 0.9999999999999996  C 6.1875 0.9999999999999996  5.411458333333334 1.1588541666666659  4.671875 1.4765625  C 3.932291666666667 1.7942708333333326  3.294270833333334 2.221354166666667  2.7578125 2.757812499999999  C 2.221354166666667 3.294270833333332  1.7942708333333335 3.932291666666666  1.4765625 4.671874999999999  C 1.1588541666666667 5.411458333333332  1 6.1875  1 7  C 1 8.302083333333332  1.3880208333333335 9.486979166666668  2.1640625 10.5546875  C 2.5078125 8.8515625  3.3046875 8  4.5546875 8  C 5.236979166666667 8.666666666666668  6.052083333333334 9  7 9  C 7.947916666666667 9  8.763020833333334 8.666666666666668  9.4453125 8  Z M 9.12109375 7.62109375  C 9.70703125 7.03515625  10 6.328125  10 5.500000000000001  C 10 4.671874999999999  9.70703125 3.96484375  9.12109375 3.3789062499999996  C 8.53515625 2.792968750000001  7.828125 2.5000000000000004  7 2.5000000000000004  C 6.171875 2.5000000000000004  5.46484375 2.792968750000001  4.87890625 3.3789062499999996  C 4.29296875 3.96484375  4 4.671874999999999  4 5.500000000000001  C 4 6.328125  4.29296875 7.03515625  4.87890625 7.62109375  C 5.46484375 8.20703125  6.171875 8.5  7 8.5  C 7.828125 8.5  8.53515625 8.20703125  9.12109375 7.62109375  Z " fill-rule="nonzero" fill="#ffffff" stroke="none" transform="matrix(1 0 0 1 399 1119 )" />
  </g>
</svg>