<?xml version="1.0" encoding="utf-8"?>
<svg version="1.1" xmlns:xlink="http://www.w3.org/1999/xlink" width="26px" height="25px" xmlns="http://www.w3.org/2000/svg">
  <g transform="matrix(1 0 0 1 -346 -1434 )">
    <path d="M 18.890625 21.94391934467549  L 17.765625 15.311909262759926  L 22.546875 10.633270321361058  L 15.953124999999998 9.65658475110271  L 13 3.638941398865783  L 10.046875 9.65658475110271  L 3.453125 10.633270321361058  L 8.234375 15.311909262759926  L 7.093749999999999 21.94391934467549  L 13 18.80907372400756  L 18.890625 21.94391934467549  Z M 25.125 8.963453056080656  C 25.708333333333336 9.057971014492756  26 9.29951690821256  26 9.688090737240076  C 26 9.91913463558076  25.864583333333336 10.171182524679686  25.59375 10.444234404536862  L 19.921875 16.020793950850663  L 21.265625 23.897290485192187  C 21.276041666666668 23.970804452846043  21.28125 24.07582440663726  21.28125 24.21235034656585  C 21.28125 24.73745011552195  21.067708333333336 25  20.640625 25  C 20.442708333333336 25  20.234375 24.936988027725267  20.015625 24.810964083175804  L 13 21.093257718966605  L 5.984375 24.810964083175804  C 5.755208333333334 24.936988027725267  5.546875 25  5.359375 25  C 5.140625 25  4.9765625 24.923860533501365  4.8671875 24.771581600504096  C 4.7578125 24.619302667506826  4.703125 24.43289224952741  4.703125 24.21235034656585  C 4.703125 24.149338374291116  4.713541666666667 24.044318420499895  4.734375 23.897290485192187  L 6.078125 16.020793950850663  L 0.390625 10.444234404536862  C 0.13020833333333331 10.160680529300567  0 9.90863264020164  0 9.688090737240076  C 0 9.29951690821256  0.29166666666666663 9.057971014492756  0.875 8.963453056080656  L 8.71875 7.813484562066791  L 12.234375 0.6458727158160038  C 12.432291666666668 0.21529090527200034  12.6875 0  13 0  C 13.312499999999998 0  13.567708333333334 0.21529090527200034  13.765625 0.6458727158160038  L 17.28125 7.813484562066791  L 25.125 8.963453056080656  Z " fill-rule="nonzero" fill="#ffffff" stroke="none" transform="matrix(1 0 0 1 346 1434 )" />
  </g>
</svg>