<?xml version="1.0" encoding="utf-8"?>
<svg version="1.1" xmlns:xlink="http://www.w3.org/1999/xlink" width="29px" height="25px" xmlns="http://www.w3.org/2000/svg">
  <g transform="matrix(1 0 0 1 -384 -1434 )">
    <path d="M 23.886160714285715 13.411458333333332  C 25.914434523809526 11.371527777777777  26.92857142857143 9.440104166666666  26.92857142857143 7.6171875  C 26.92857142857143 6.73828125  26.812593005952383 5.962456597222221  26.580636160714285 5.289713541666666  C 26.34867931547619 4.616970486111108  26.051990327380956 4.082573784722221  25.69056919642857 3.6865234375  C 25.329148065476193 3.2904730902777763  24.889508928571434 2.9676649305555554  24.371651785714285 2.7180989583333344  C 23.853794642857146 2.4685329861111076  23.34672619047619 2.300347222222221  22.85044642857143 2.2135416666666656  C 22.354166666666668 2.1267361111111076  21.825520833333336 2.0833333333333344  21.26450892857143 2.0833333333333344  C 20.703497023809526 2.0833333333333344  20.099330357142854 2.2216796875  19.45200892857143 2.4983723958333344  C 18.8046875 2.7750651041666656  18.208612351190478 3.1222873263888866  17.663783482142854 3.5400390625  C 17.11895461309524 3.9577907986111076  16.65234375 4.348415798611108  16.263950892857146 4.7119140625  C 15.875558035714288 5.075412326388887  15.551897321428573 5.409071180555555  15.29296875 5.712890625  C 15.098772321428573 5.951605902777776  14.834449404761905 6.070963541666666  14.5 6.070963541666666  C 14.165550595238095 6.070963541666666  13.901227678571427 5.951605902777776  13.70703125 5.712890625  C 13.448102678571427 5.409071180555555  13.124441964285715 5.075412326388887  12.736049107142858 4.7119140625  C 12.34765625 4.348415798611108  11.881045386904763 3.9577907986111076  11.336216517857142 3.5400390625  C 10.791387648809526 3.1222873263888866  10.1953125 2.7750651041666656  9.547991071428573 2.4983723958333344  C 8.900669642857142 2.2216796875  8.296502976190478 2.0833333333333344  7.735491071428572 2.0833333333333344  C 7.174479166666667 2.0833333333333344  6.645833333333335 2.1267361111111076  6.149553571428571 2.2135416666666656  C 5.65327380952381 2.300347222222221  5.146205357142858 2.4685329861111076  4.6283482142857135 2.7180989583333344  C 4.110491071428571 2.9676649305555554  3.6708519345238098 3.2904730902777763  3.309430803571429 3.6865234375  C 2.948009672619048 4.082573784722221  2.6513206845238098 4.616970486111108  2.4193638392857144 5.289713541666666  C 2.1874069940476195 5.962456597222221  2.071428571428571 6.73828125  2.071428571428571 7.6171875  C 2.071428571428571 9.440104166666666  3.0801711309523814 11.366102430555555  5.09765625 13.395182291666668  L 14.5 22.509765625  L 23.886160714285715 13.411458333333332  Z M 26.944754464285715 2.0182291666666656  C 28.314918154761905 3.3637152777777763  29 5.230034722222221  29 7.6171875  C 29 10.015190972222221  27.76469494047619 12.456597222222221  25.29408482142857 14.94140625  L 15.212053571428571 24.70703125  C 15.017857142857144 24.90234375  14.780505952380953 25  14.5 25  C 14.21949404761905 25  13.98214285714286 24.90234375  13.787946428571427 24.70703125  L 3.689732142857143 14.908854166666668  C 3.581845238095238 14.82204861111111  3.4335007440476195 14.680989583333332  3.2446986607142856 14.485677083333332  C 3.0558965773809526 14.290364583333332  2.756510416666667 13.935004340277779  2.346540178571429 13.419596354166668  C 1.9365699404761905 12.904188368055552  1.5697544642857144 12.375217013888888  1.24609375 11.832682291666666  C 0.9224330357142857 11.290147569444445  0.6338355654761906 10.633680555555555  0.3803013392857143 9.86328125  C 0.1267671130952381 9.092881944444443  0 8.344184027777777  0 7.6171875  C 0 5.230034722222221  0.6850818452380951 3.3637152777777763  2.0552455357142856 2.0182291666666656  C 3.4254092261904763 0.6727430555555552  5.318824404761904 0  7.735491071428572 0  C 8.404389880952381 0  9.086774553571427 0.11664496527777624  9.782645089285715 0.34993489583333426  C 10.478515625 0.5832248263888867  11.125837053571427 0.8978949652777762  11.724609375 1.2939453125  C 12.323381696428573 1.689995659722221  12.83854166666667 2.061631944444442  13.270089285714285 2.4088541666666656  C 13.701636904761905 2.7560763888888866  14.111607142857142 3.125  14.5 3.515625  C 14.888392857142856 3.125  15.298363095238097 2.7560763888888866  15.729910714285715 2.4088541666666656  C 16.161458333333336 2.061631944444442  16.67661830357143 1.689995659722221  17.275390625 1.2939453125  C 17.87416294642857 0.8978949652777762  18.521484375 0.5832248263888867  19.217354910714285 0.34993489583333426  C 19.91322544642857 0.11664496527777624  20.59561011904762 0  21.26450892857143 0  C 23.6811755952381 0  25.574590773809526 0.6727430555555552  26.944754464285715 2.0182291666666656  Z " fill-rule="nonzero" fill="#ffffff" stroke="none" transform="matrix(1 0 0 1 384 1434 )" />
  </g>
</svg>