<?xml version="1.0" encoding="utf-8"?>
<svg version="1.1" xmlns:xlink="http://www.w3.org/1999/xlink" width="16px" height="16px" xmlns="http://www.w3.org/2000/svg">
  <g transform="matrix(1 0 0 1 -916 -1095 )">
    <path d="M 15.364583333333334 4.895833333333334  C 15.788194444444443 5.881944444444445  16 6.916666666666666  16 8  C 16 9.083333333333332  15.788194444444443 10.118055555555554  15.364583333333334 11.104166666666668  C 14.940972222222223 12.090277777777779  14.371527777777779 12.940972222222221  13.65625 13.65625  C 12.940972222222223 14.371527777777779  12.090277777777779 14.940972222222221  11.104166666666666 15.364583333333334  C 10.118055555555557 15.788194444444445  9.083333333333334 16  8 16  C 6.805555555555556 16  5.670138888888889 15.748263888888888  4.59375 15.244791666666666  C 3.517361111111111 14.741319444444445  2.6006944444444446 14.03125  1.84375 13.114583333333334  C 1.795138888888889 13.045138888888888  1.7725694444444446 12.967013888888888  1.7760416666666667 12.880208333333334  C 1.779513888888889 12.793402777777779  1.809027777777778 12.722222222222221  1.8645833333333333 12.666666666666666  L 3.2916666666666665 11.229166666666668  C 3.361111111111111 11.166666666666668  3.4479166666666665 11.135416666666668  3.5520833333333335 11.135416666666668  C 3.6631944444444446 11.149305555555554  3.743055555555556 11.190972222222221  3.7916666666666665 11.260416666666668  C 4.298611111111112 11.92013888888889  4.920138888888889 12.430555555555555  5.65625 12.791666666666666  C 6.392361111111112 13.152777777777779  7.173611111111112 13.333333333333334  8 13.333333333333334  C 8.722222222222223 13.333333333333334  9.411458333333334 13.192708333333334  10.067708333333334 12.911458333333334  C 10.723958333333334 12.630208333333334  11.291666666666666 12.25  11.770833333333334 11.770833333333332  C 12.25 11.291666666666668  12.630208333333334 10.723958333333332  12.911458333333334 10.067708333333332  C 13.192708333333334 9.411458333333332  13.333333333333334 8.722222222222221  13.333333333333334 8  C 13.333333333333334 7.277777777777777  13.192708333333334 6.588541666666666  12.911458333333334 5.932291666666666  C 12.630208333333334 5.276041666666666  12.25 4.708333333333334  11.770833333333334 4.229166666666666  C 11.291666666666666 3.75  10.723958333333334 3.369791666666666  10.067708333333334 3.088541666666666  C 9.411458333333334 2.807291666666666  8.722222222222223 2.666666666666666  8 2.666666666666666  C 7.3194444444444455 2.666666666666666  6.666666666666667 2.7899305555555554  6.041666666666667 3.036458333333334  C 5.416666666666667 3.282986111111109  4.861111111111112 3.635416666666666  4.375 4.09375  L 5.802083333333333 5.53125  C 6.017361111111112 5.739583333333334  6.065972222222222 5.979166666666666  5.947916666666667 6.25  C 5.829861111111112 6.527777777777779  5.625 6.666666666666666  5.333333333333333 6.666666666666666  L 0.6666666666666666 6.666666666666666  C 0.48611111111111116 6.666666666666666  0.3298611111111111 6.600694444444445  0.19791666666666666 6.46875  C 0.06597222222222222 6.336805555555555  0 6.180555555555555  0 6  L 0 1.333333333333334  C 0 1.041666666666666  0.13888888888888887 0.8368055555555554  0.4166666666666667 0.71875  C 0.6875 0.6006944444444429  0.9270833333333334 0.6493055555555554  1.1354166666666667 0.8645833333333339  L 2.4895833333333335 2.208333333333334  C 3.2326388888888893 1.5069444444444429  4.081597222222222 0.9635416666666661  5.036458333333333 0.578125  C 5.9913194444444455 0.19270833333333393  6.979166666666667 0  8 0  C 9.083333333333334 0  10.118055555555557 0.21180555555555536  11.104166666666666 0.6354166666666661  C 12.090277777777779 1.0590277777777768  12.940972222222223 1.6284722222222214  13.65625 2.34375  C 14.371527777777779 3.059027777777777  14.940972222222223 3.9097222222222214  15.364583333333334 4.895833333333334  Z M 9.239583333333334 4.760416666666666  C 9.302083333333334 4.822916666666666  9.333333333333334 4.902777777777777  9.333333333333334 5  L 9.333333333333334 9.666666666666668  C 9.333333333333334 9.76388888888889  9.302083333333334 9.84375  9.239583333333334 9.90625  C 9.177083333333334 9.96875  9.097222222222223 10  9 10  L 5.666666666666667 10  C 5.5694444444444455 10  5.489583333333333 9.96875  5.427083333333333 9.90625  C 5.364583333333333 9.84375  5.333333333333333 9.76388888888889  5.333333333333333 9.666666666666668  L 5.333333333333333 9  C 5.333333333333333 8.902777777777779  5.364583333333333 8.822916666666668  5.427083333333333 8.760416666666668  C 5.489583333333333 8.697916666666668  5.5694444444444455 8.666666666666668  5.666666666666667 8.666666666666668  L 8 8.666666666666668  L 8 5  C 8 4.902777777777777  8.03125 4.822916666666666  8.09375 4.760416666666666  C 8.156250000000002 4.697916666666666  8.236111111111112 4.666666666666666  8.333333333333334 4.666666666666666  L 9 4.666666666666666  C 9.097222222222223 4.666666666666666  9.177083333333334 4.697916666666666  9.239583333333334 4.760416666666666  Z " fill-rule="nonzero" fill="#ffffff" stroke="none" transform="matrix(1 0 0 1 916 1095 )" />
  </g>
</svg>