<?xml version="1.0" encoding="utf-8"?>
<svg version="1.1" xmlns:xlink="http://www.w3.org/1999/xlink" width="11px" height="16px" xmlns="http://www.w3.org/2000/svg">
  <g transform="matrix(1 0 0 1 -370 -1352 )">
    <path d="M 8.1103515625 8.467532467532468  L 0.4833984375 15.844155844155845  C 0.3473307291666667 15.975757575757576  0.23274739583333337 16.02077922077922  0.13964843750000003 15.97922077922078  C 0.046549479166666685 15.937662337662339  0 15.826839826839826  0 15.646753246753248  L 0 0.3532467532467525  C 0 0.17316017316017174  0.046549479166666685 0.06233766233766147  0.13964843750000003 0.020779220779219898  C 0.23274739583333337 -0.020779220779221674  0.3473307291666667 0.02424242424242351  0.4833984375 0.15584415584415545  L 8.1103515625 7.532467532467532  C 8.1748046875 7.594805194805195  8.221354166666668 7.66060606060606  8.25 7.729870129870131  L 8.25 0.685714285714285  C 8.25 0.5056277056277043  8.318033854166666 0.34978354978354886  8.4541015625 0.2181818181818187  C 8.590169270833334 0.08658008658008498  8.751302083333334 0.020779220779219898  8.9375 0.020779220779219898  L 10.3125 0.020779220779219898  C 10.498697916666668 0.020779220779219898  10.659830729166668 0.08658008658008498  10.7958984375 0.2181818181818187  C 10.931966145833334 0.34978354978354886  11 0.5056277056277043  11 0.685714285714285  L 11 15.314285714285715  C 11 15.494372294372294  10.931966145833334 15.65021645021645  10.7958984375 15.781818181818181  C 10.659830729166668 15.913419913419915  10.498697916666668 15.97922077922078  10.3125 15.97922077922078  L 8.9375 15.97922077922078  C 8.751302083333334 15.97922077922078  8.590169270833334 15.913419913419915  8.4541015625 15.781818181818181  C 8.318033854166666 15.65021645021645  8.25 15.494372294372294  8.25 15.314285714285715  L 8.25 8.270129870129871  C 8.221354166666668 8.33939393939394  8.1748046875 8.405194805194805  8.1103515625 8.467532467532468  Z " fill-rule="nonzero" fill="#ffffff" stroke="none" transform="matrix(1 0 0 1 370 1352 )" />
  </g>
</svg>