<?xml version="1.0" encoding="utf-8"?>
<svg version="1.1" xmlns:xlink="http://www.w3.org/1999/xlink" width="10px" height="10px" xmlns="http://www.w3.org/2000/svg">
  <g transform="matrix(1 0 0 1 -493 -1360 )">
    <path d="M 8.26171875 6.3757300454250485  C 8.448350694444445 5.936621241617996  8.541666666666666 5.476963011031797  8.541666666666666 4.99675535366645  C 8.541666666666666 4.300237940731126  8.352864583333334 3.6621241617996967  7.975260416666666 3.0824140168721614  L 3.06640625 7.968851395197923  C 3.661024305555556 8.35388276011248  4.305555555555555 8.54639844256976  5 8.54639844256976  C 5.481770833333334 8.54639844256976  5.940755208333334 8.45230369889682  6.376953125 8.264114211550941  C 6.813151041666666 8.075924724205061  7.189670138888889 7.82392385896604  7.506510416666666 7.508111615833874  C 7.8233506944444455 7.192299372701708  8.075086805555557 6.814838849232099  8.26171875 6.3757300454250485  Z M 1.4583333333333335 4.99675535366645  C 1.4583333333333335 5.697598961713172  1.6514756944444444 6.344365130867401  2.0377604166666665 6.937053861129137  L 6.953125 2.0441271901362756  C 6.367187500000001 1.6504434349989183  5.716145833333334 1.4536015574302397  5 1.4536015574302397  C 4.357638888888889 1.4536015574302397  3.7651909722222228 1.6115076789963223  3.22265625 1.9273199221284876  C 2.6801215277777777 2.2431321652606515  2.2504340277777777 2.6735885788449054  1.93359375 3.2186891628812466  C 1.6167534722222223 3.7637897469175865  1.4583333333333335 4.356478477179321  1.4583333333333335 4.99675535366645  Z M 9.602864583333334 3.0532121998702144  C 9.867621527777777 3.6696950032446463  10 4.317542721176725  10 4.99675535366645  C 10 5.675967986156175  9.867621527777777 6.324897252866104  9.602864583333334 6.943543153796236  C 9.33810763888889 7.5621890547263675  8.983289930555557 8.094311053428509  8.538411458333334 8.53990914990266  C 8.09353298611111 8.985507246376812  7.561848958333334 9.340255245511571  6.943359375 9.604153147306944  C 6.324869791666668 9.868051049102316  5.677083333333334 10  5 10  C 4.322916666666667 10  3.675130208333333 9.868051049102316  3.056640625 9.604153147306944  C 2.4381510416666665 9.340255245511571  1.9064670138888893 8.985507246376812  1.4615885416666665 8.53990914990266  C 1.0167100694444446 8.094311053428509  0.6618923611111112 7.5621890547263675  0.39713541666666674 6.943543153796236  C 0.13237847222222227 6.324897252866104  0 5.675967986156175  0 4.99675535366645  C 0 4.317542721176725  0.13237847222222227 3.6696950032446463  0.39713541666666674 3.0532121998702144  C 0.6618923611111112 2.4367293964957817  1.0167100694444446 1.90568894657149  1.4615885416666665 1.4600908500973397  C 1.9064670138888893 1.0144927536231874  2.4381510416666665 0.6597447544884261  3.056640625 0.39584685269305697  C 3.675130208333333 0.13194895089768455  4.322916666666667 0  5 0  C 5.677083333333334 0  6.324869791666668 0.13194895089768455  6.943359375 0.39584685269305697  C 7.561848958333334 0.6597447544884261  8.09353298611111 1.0144927536231874  8.538411458333334 1.4600908500973397  C 8.983289930555557 1.90568894657149  9.33810763888889 2.4367293964957817  9.602864583333334 3.0532121998702144  Z " fill-rule="nonzero" fill="#ffffff" stroke="none" transform="matrix(1 0 0 1 493 1360 )" />
  </g>
</svg>