<?xml version="1.0" encoding="utf-8"?>
<svg version="1.1" xmlns:xlink="http://www.w3.org/1999/xlink" width="16px" height="14px" xmlns="http://www.w3.org/2000/svg">
  <g transform="matrix(1 0 0 1 -888 -1353 )">
    <path d="M 7.201923076923077 1.2011251758087205  C 7.323717948717948 1.3258321612751984  7.384615384615385 1.473511486169713  7.384615384615385 1.644163150492264  L 7.384615384615385 12.355836849507735  C 7.384615384615385 12.526488513830285  7.323717948717948 12.6741678387248  7.201923076923077 12.79887482419128  C 7.080128205128205 12.923581809657758  6.935897435897436 12.985935302390999  6.769230769230769 12.985935302390999  C 6.602564102564103 12.985935302390999  6.458333333333334 12.923581809657758  6.336538461538462 12.79887482419128  L 3.1346153846153846 9.52039381153305  L 0.6153846153846154 9.52039381153305  C 0.4487179487179488 9.52039381153305  0.3044871794871795 9.458040318799812  0.18269230769230768 9.333333333333334  C 0.060897435897435896 9.208626347866854  0 9.06094702297234  0 8.890295358649789  L 0 5.109704641350211  C 0 4.93905297702766  0.060897435897435896 4.791373652133144  0.18269230769230768 4.666666666666667  C 0.3044871794871795 4.541959681200186  0.4487179487179488 4.479606188466949  0.6153846153846154 4.479606188466949  L 3.1346153846153846 4.479606188466949  L 6.336538461538462 1.2011251758087205  C 6.458333333333334 1.076418190342241  6.602564102564103 1.014064697609002  6.769230769230769 1.014064697609002  C 6.935897435897436 1.014064697609002  7.080128205128205 1.076418190342241  7.201923076923077 1.2011251758087205  Z M 10.66826923076923 5.60196905766526  C 10.94070512820513 6.035161744022504  11.076923076923077 6.501172058134082  11.076923076923077 7  C 11.076923076923077 7.498827941865916  10.94070512820513 7.96319737458978  10.66826923076923 8.39310829817159  C 10.395833333333334 8.823019221753396  10.03525641025641 9.129864041256445  9.586538461538462 9.313642756680732  C 9.5224358974359 9.346460384435066  9.442307692307693 9.362869198312236  9.346153846153847 9.362869198312236  C 9.17948717948718 9.362869198312236  9.03525641025641 9.302156586966712  8.913461538461538 9.180731364275667  C 8.791666666666668 9.05930614158462  8.73076923076923 8.909985935302391  8.73076923076923 8.732770745428974  C 8.73076923076923 8.594936708860759  8.76923076923077 8.478434130332865  8.846153846153847 8.383263009845288  C 8.923076923076923 8.28809188935771  9.016025641025642 8.206047819971872  9.125 8.137130801687764  C 9.233974358974361 8.068213783403657  9.342948717948719 7.992733239568681  9.451923076923077 7.910689170182842  C 9.560897435897436 7.828645100796999  9.653846153846153 7.710501640881387  9.73076923076923 7.556258790436004  C 9.807692307692308 7.402015939990623  9.846153846153847 7.216596343178621  9.846153846153847 7  C 9.846153846153847 6.783403656821379  9.807692307692308 6.5979840600093755  9.73076923076923 6.443741209563994  C 9.653846153846153 6.289498359118611  9.560897435897436 6.171354899202999  9.451923076923077 6.089310829817159  C 9.342948717948719 6.0072667604313175  9.233974358974361 5.931786216596343  9.125 5.862869198312237  C 9.016025641025642 5.793952180028128  8.923076923076923 5.7119081106422875  8.846153846153847 5.6167369901547115  C 8.76923076923077 5.521565869667135  8.73076923076923 5.40506329113924  8.73076923076923 5.267229254571027  C 8.73076923076923 5.090014064697608  8.791666666666668 4.940693858415377  8.913461538461538 4.819268635724333  C 9.03525641025641 4.6978434130332865  9.17948717948718 4.637130801687763  9.346153846153847 4.637130801687763  C 9.442307692307693 4.637130801687763  9.5224358974359 4.653539615564932  9.586538461538462 4.686357243319268  C 10.03525641025641 4.863572433192687  10.395833333333334 5.1687763713080175  10.66826923076923 5.60196905766526  Z M 12.721153846153847 4.218706047819971  C 13.266025641025642 5.06868260665729  13.538461538461538 5.995780590717299  13.538461538461538 7  C 13.538461538461538 8.004219409282701  13.266025641025642 8.93131739334271  12.721153846153847 9.781293952180027  C 12.176282051282053 10.631270511017345  11.455128205128206 11.24988279418659  10.557692307692308 11.637130801687764  C 10.474358974358976 11.6699484294421  10.39423076923077 11.686357243319268  10.317307692307692 11.686357243319268  C 10.14423076923077 11.686357243319268  9.996794871794872 11.624003750586029  9.875 11.49929676511955  C 9.75320512820513 11.374589779653071  9.692307692307693 11.226910454758556  9.692307692307692 11.056258790436004  C 9.692307692307693 10.80028129395218  9.817307692307693 10.606657290201593  10.067307692307692 10.475386779184248  C 10.426282051282053 10.285044538209094  10.669871794871796 10.140646976090014  10.798076923076923 10.042194092827005  C 11.2724358974359 9.68776371308017  11.642628205128206 9.243084857008906  11.908653846153847 8.70815752461322  C 12.174679487179487 8.173230192217533  12.307692307692308 7.603844350679793  12.307692307692308 7  C 12.307692307692308 6.396155649320205  12.174679487179487 5.8267698077824654  11.908653846153847 5.291842475386779  C 11.642628205128206 4.756915142991092  11.2724358974359 4.312236286919831  10.798076923076923 3.957805907172996  C 10.669871794871796 3.8593530239099865  10.426282051282053 3.714955461790904  10.067307692307692 3.524613220815752  C 9.817307692307693 3.3933427097984046  9.692307692307693 3.19971870604782  9.692307692307692 2.943741209563994  C 9.692307692307693 2.773089545241443  9.75320512820513 2.625410220346928  9.875 2.50070323488045  C 9.996794871794872 2.3759962494139706  10.141025641025642 2.3136427566807316  10.307692307692308 2.3136427566807316  C 10.391025641025642 2.3136427566807316  10.474358974358976 2.3300515705578975  10.557692307692308 2.3628691983122367  C 11.455128205128206 2.7501172058134076  12.176282051282053 3.3687294889826513  12.721153846153847 4.218706047819971  Z M 14.778846153846153 2.8403656821378336  C 15.592948717948719 4.103844350679793  16 5.490389123300513  16 7  C 16 8.509610876699483  15.592948717948719 9.896155649320203  14.778846153846153 11.159634317862166  C 13.964743589743591 12.423112986404126  12.881410256410257 13.353492733239568  11.528846153846153 13.950773558368494  C 11.445512820512821 13.983591186122831  11.362179487179487 14  11.278846153846153 14  C 11.112179487179487 14  10.967948717948719 13.937646507266761  10.846153846153847 13.812939521800281  C 10.724358974358976 13.688232536333802  10.663461538461538 13.540553211439287  10.663461538461538 13.369901547116736  C 10.663461538461538 13.133614627285512  10.788461538461538 12.939990623534927  11.038461538461538 12.78902953586498  C 11.083333333333334 12.76277543366151  11.155448717948719 12.728316924519456  11.254807692307692 12.685654008438819  C 11.354166666666668 12.642991092358182  11.426282051282053 12.608532583216128  11.471153846153847 12.582278481012658  C 11.766025641025642 12.418190342240974  12.028846153846153 12.250820440693857  12.259615384615385 12.080168776371309  C 13.048076923076923 11.48288795124238  13.663461538461538 10.73792780121894  14.10576923076923 9.845288326300984  C 14.548076923076923 8.952648851383028  14.76923076923077 8.004219409282701  14.76923076923077 7  C 14.76923076923077 5.995780590717299  14.548076923076923 5.047351148616972  14.10576923076923 4.1547116736990155  C 13.663461538461538 3.262072198781059  13.048076923076923 2.5171120487576175  12.259615384615385 1.9198312236286919  C 12.028846153846153 1.7491795593061408  11.766025641025642 1.5818096577590235  11.471153846153847 1.4177215189873416  C 11.426282051282053 1.3914674167838712  11.354166666666668 1.357008907641818  11.254807692307692 1.3143459915611817  C 11.155448717948719 1.2716830754805424  11.083333333333334 1.237224566338489  11.038461538461538 1.2109704641350219  C 10.788461538461538 1.0600093764650704  10.663461538461538 0.8663853727144859  10.663461538461538 0.6300984528832636  C 10.663461538461538 0.459446788560711  10.724358974358976 0.31176746366619645  10.846153846153847 0.1870604781997185  C 10.967948717948719 0.06235349273323898  11.112179487179487 0  11.278846153846153 0  C 11.362179487179487 0  11.445512820512821 0.016408813877167416  11.528846153846153 0.04922644163150536  C 12.881410256410257 0.6465072667604295  13.964743589743591 1.5768870135958728  14.778846153846153 2.8403656821378336  Z " fill-rule="nonzero" fill="#ffffff" stroke="none" transform="matrix(1 0 0 1 888 1353 )" />
  </g>
</svg>