<?xml version="1.0" encoding="utf-8"?>
<svg version="1.1" xmlns:xlink="http://www.w3.org/1999/xlink" width="15px" height="20px" xmlns="http://www.w3.org/2000/svg">
  <g transform="matrix(1 0 0 1 -352 -1220 )">
    <path d="M 4.166666666666667 10  L 13.75 10  C 14.097222222222223 10  14.392361111111114 10.121527777777777  14.635416666666666 10.364583333333336  C 14.878472222222223 10.60763888888889  15 10.902777777777777  15 11.25  L 15 18.75  C 15 19.09722222222222  14.878472222222223 19.39236111111111  14.635416666666666 19.635416666666668  C 14.392361111111114 19.87847222222222  14.097222222222223 20  13.75 20  L 1.25 20  C 0.9027777777777779 20  0.607638888888889 19.87847222222222  0.3645833333333333 19.635416666666668  C 0.12152777777777778 19.39236111111111  0 19.09722222222222  0 18.75  L 0 11.25  C 0 10.902777777777777  0.12152777777777778 10.60763888888889  0.3645833333333333 10.364583333333336  C 0.607638888888889 10.121527777777777  0.9027777777777779 10  1.25 10  L 1.6666666666666665 10  L 1.6666666666666665 5.833333333333332  C 1.6666666666666665 4.227430555555554  2.2374131944444446 2.853732638888886  3.37890625 1.7122395833333326  C 4.520399305555555 0.570746527777779  5.894097222222222 0  7.5 0  C 9.105902777777779 0  10.479600694444445 0.570746527777779  11.62109375 1.7122395833333326  C 12.762586805555557 2.853732638888886  13.333333333333332 4.227430555555554  13.333333333333332 5.833333333333332  C 13.333333333333332 6.059027777777777  13.250868055555555 6.254340277777777  13.0859375 6.419270833333332  C 12.921006944444445 6.584201388888886  12.725694444444445 6.666666666666668  12.5 6.666666666666668  L 11.666666666666666 6.666666666666668  C 11.440972222222223 6.666666666666668  11.245659722222223 6.584201388888886  11.080729166666666 6.419270833333332  C 10.91579861111111 6.254340277777777  10.833333333333334 6.059027777777777  10.833333333333334 5.833333333333332  C 10.833333333333334 4.913194444444445  10.5078125 4.127604166666668  9.856770833333334 3.4765625  C 9.205729166666666 2.8255208333333326  8.42013888888889 2.5  7.5 2.5  C 6.579861111111112 2.5  5.794270833333333 2.8255208333333326  5.143229166666666 3.4765625  C 4.4921875 4.127604166666668  4.166666666666667 4.913194444444445  4.166666666666667 5.833333333333332  L 4.166666666666667 10  Z " fill-rule="nonzero" fill="#ffffff" stroke="none" transform="matrix(1 0 0 1 352 1220 )" />
  </g>
</svg>