<?xml version="1.0" encoding="utf-8"?>
<svg version="1.1" xmlns:xlink="http://www.w3.org/1999/xlink" width="18px" height="5px" xmlns="http://www.w3.org/2000/svg">
  <g transform="matrix(1 0 0 1 -942 -1358 )">
    <path d="M 4.551136363636364 0.36458333333333315  C 4.789772727272727 0.6076388888888867  4.909090909090908 0.9027777777777768  4.909090909090908 1.25  L 4.909090909090908 3.75  C 4.909090909090908 4.097222222222221  4.789772727272727 4.39236111111111  4.551136363636364 4.635416666666667  C 4.312500000000001 4.878472222222221  4.022727272727273 5  3.681818181818182 5  L 1.227272727272727 5  C 0.8863636363636365 5  0.5965909090909092 4.878472222222221  0.35795454545454547 4.635416666666667  C 0.11931818181818181 4.39236111111111  0 4.097222222222221  0 3.75  L 0 1.25  C 0 0.9027777777777768  0.11931818181818181 0.6076388888888867  0.35795454545454547 0.36458333333333315  C 0.5965909090909092 0.12152777777777679  0.8863636363636365 0  1.227272727272727 0  L 3.681818181818182 0  C 4.022727272727273 0  4.312500000000001 0.12152777777777679  4.551136363636364 0.36458333333333315  Z M 11.096590909090908 0.36458333333333315  C 11.335227272727273 0.6076388888888867  11.454545454545455 0.9027777777777768  11.454545454545455 1.25  L 11.454545454545455 3.75  C 11.454545454545455 4.097222222222221  11.335227272727273 4.39236111111111  11.096590909090908 4.635416666666667  C 10.857954545454549 4.878472222222221  10.568181818181818 5  10.227272727272728 5  L 7.7727272727272725 5  C 7.4318181818181825 5  7.142045454545456 4.878472222222221  6.903409090909092 4.635416666666667  C 6.6647727272727275 4.39236111111111  6.545454545454546 4.097222222222221  6.545454545454546 3.75  L 6.545454545454546 1.25  C 6.545454545454546 0.9027777777777768  6.6647727272727275 0.6076388888888867  6.903409090909092 0.36458333333333315  C 7.142045454545456 0.12152777777777679  7.4318181818181825 0  7.7727272727272725 0  L 10.227272727272728 0  C 10.568181818181818 0  10.857954545454549 0.12152777777777679  11.096590909090908 0.36458333333333315  Z M 17.642045454545453 0.36458333333333315  C 17.88068181818182 0.6076388888888867  18 0.9027777777777768  18 1.25  L 18 3.75  C 18 4.097222222222221  17.88068181818182 4.39236111111111  17.642045454545453 4.635416666666667  C 17.403409090909093 4.878472222222221  17.113636363636363 5  16.772727272727273 5  L 14.318181818181817 5  C 13.977272727272728 5  13.687500000000002 4.878472222222221  13.448863636363637 4.635416666666667  C 13.210227272727275 4.39236111111111  13.090909090909092 4.097222222222221  13.090909090909092 3.75  L 13.090909090909092 1.25  C 13.090909090909092 0.9027777777777768  13.210227272727275 0.6076388888888867  13.448863636363637 0.36458333333333315  C 13.687500000000002 0.12152777777777679  13.977272727272728 0  14.318181818181817 0  L 16.772727272727273 0  C 17.113636363636363 0  17.403409090909093 0.12152777777777679  17.642045454545453 0.36458333333333315  Z " fill-rule="nonzero" fill="#ffffff" stroke="none" transform="matrix(1 0 0 1 942 1358 )" />
  </g>
</svg>