<?xml version="1.0" encoding="utf-8"?>
<svg version="1.1" xmlns:xlink="http://www.w3.org/1999/xlink" width="10px" height="10px" xmlns="http://www.w3.org/2000/svg">
  <g transform="matrix(1 0 0 1 -939 -1196 )">
    <path d="M 7.265625 8.777567737870196  L 6.8329326923076925 6.1247637051039705  L 8.671875 4.253308128544423  L 6.1358173076923075 3.8626339004410837  L 5 1.4555765595463133  L 3.864182692307692 3.8626339004410837  L 1.328125 4.253308128544423  L 3.167067307692308 6.1247637051039705  L 2.728365384615384 8.777567737870196  L 5 7.5236294896030245  L 7.265625 8.777567737870196  Z M 9.663461538461538 3.5853812224322623  C 9.887820512820513 3.623188405797102  10 3.719806763285024  10 3.8752362948960304  C 10 3.967653854232304  9.947916666666668 4.068473009871875  9.84375 4.177693761814744  L 7.662259615384616 6.408317580340265  L 8.179086538461538 9.558916194076874  C 8.183092948717949 9.588321781138417  8.185096153846153 9.630329762654902  8.185096153846153 9.684940138626338  C 8.185096153846153 9.89498004620878  8.102964743589745 10  7.938701923076923 10  C 7.862580128205129 10  7.782451923076923 9.974795211090107  7.6983173076923075 9.924385633270322  L 5 8.437303087586642  L 2.301682692307692 9.924385633270322  C 2.213541666666667 9.974795211090107  2.1334134615384617 10  2.0612980769230766 10  C 1.9771634615384615 10  1.9140625 9.969544213400546  1.871995192307692 9.908632640201638  C 1.8299278846153846 9.84772106700273  1.8088942307692308 9.773156899810964  1.8088942307692308 9.684940138626338  C 1.8088942307692308 9.659735349716446  1.8129006410256412 9.617727368199958  1.8209134615384615 9.558916194076874  L 2.3377403846153846 6.408317580340265  L 0.1502403846153846 4.177693761814744  C 0.0500801282051282 4.064272211720227  0 3.963453056080656  0 3.8752362948960304  C 0 3.719806763285024  0.11217948717948717 3.623188405797102  0.3365384615384615 3.5853812224322623  L 3.353365384615384 3.1253938248267166  L 4.705528846153847 0.2583490863264015  C 4.781650641025641 0.08611636210880014  4.8798076923076925 0  5 0  C 5.1201923076923075 0  5.2183493589743595 0.08611636210880014  5.294471153846154 0.2583490863264015  L 6.646634615384616 3.1253938248267166  L 9.663461538461538 3.5853812224322623  Z " fill-rule="nonzero" fill="#ffffff" stroke="none" transform="matrix(1 0 0 1 939 1196 )" />
  </g>
</svg>