<?xml version="1.0" encoding="utf-8"?>
<svg version="1.1" xmlns:xlink="http://www.w3.org/1999/xlink" width="12px" height="10px" xmlns="http://www.w3.org/2000/svg">
  <g transform="matrix(1 0 0 1 -954 -1196 )">
    <path d="M 9.883928571428571 5.364583333333332  C 10.723214285714286 4.548611111111111  11.142857142857142 3.776041666666666  11.142857142857142 3.046875  C 11.142857142857142 2.6953125  11.094866071428573 2.3849826388888884  10.998883928571429 2.115885416666666  C 10.902901785714286 1.846788194444443  10.78013392857143 1.6330295138888884  10.630580357142858 1.474609375  C 10.481026785714288 1.3161892361111105  10.299107142857144 1.187065972222222  10.084821428571429 1.0872395833333337  C 9.870535714285715 0.9874131944444431  9.660714285714286 0.9201388888888884  9.455357142857142 0.8854166666666663  C 9.25 0.8506944444444431  9.03125 0.8333333333333337  8.799107142857142 0.8333333333333337  C 8.566964285714286 0.8333333333333337  8.316964285714285 0.888671875  8.049107142857142 0.9993489583333337  C 7.78125 1.1100260416666663  7.534598214285714 1.2489149305555547  7.309151785714285 1.416015625  C 7.0837053571428585 1.583116319444443  6.890625 1.739366319444443  6.729910714285715 1.884765625  C 6.56919642857143 2.0301649305555545  6.435267857142858 2.1636284722222223  6.328125 2.28515625  C 6.247767857142858 2.3806423611111107  6.138392857142858 2.428385416666666  6 2.428385416666666  C 5.861607142857143 2.428385416666666  5.752232142857142 2.3806423611111107  5.671875 2.28515625  C 5.564732142857142 2.1636284722222223  5.430803571428571 2.0301649305555545  5.270089285714286 1.884765625  C 5.109375 1.739366319444443  4.916294642857143 1.583116319444443  4.690848214285714 1.416015625  C 4.4654017857142865 1.2489149305555547  4.21875 1.1100260416666663  3.9508928571428577 0.9993489583333337  C 3.6830357142857144 0.888671875  3.4330357142857153 0.8333333333333337  3.2008928571428577 0.8333333333333337  C 2.96875 0.8333333333333337  2.7500000000000004 0.8506944444444431  2.544642857142857 0.8854166666666663  C 2.3392857142857144 0.9201388888888884  2.1294642857142856 0.9874131944444431  1.9151785714285712 1.0872395833333337  C 1.7008928571428572 1.187065972222222  1.5189732142857144 1.3161892361111105  1.3694196428571428 1.474609375  C 1.2198660714285716 1.6330295138888884  1.0970982142857144 1.846788194444443  1.0011160714285714 2.115885416666666  C 0.9051339285714288 2.3849826388888884  0.8571428571428571 2.6953125  0.8571428571428571 3.046875  C 0.8571428571428571 3.776041666666666  1.2745535714285716 4.546440972222222  2.109375 5.358072916666668  L 6 9.00390625  L 9.883928571428571 5.364583333333332  Z M 11.149553571428571 0.8072916666666663  C 11.716517857142858 1.3454861111111105  12 2.0920138888888884  12 3.046875  C 12 4.006076388888888  11.488839285714286 4.982638888888888  10.466517857142858 5.9765625  L 6.294642857142857 9.8828125  C 6.214285714285715 9.9609375  6.116071428571429 10  6 10  C 5.883928571428572 10  5.7857142857142865 9.9609375  5.705357142857142 9.8828125  L 1.5267857142857142 5.963541666666668  C 1.4821428571428572 5.928819444444445  1.4207589285714288 5.872395833333332  1.3426339285714286 5.794270833333332  C 1.2645089285714286 5.716145833333332  1.140625 5.574001736111112  0.9709821428571429 5.367838541666668  C 0.8013392857142857 5.161675347222221  0.6495535714285714 4.9500868055555545  0.515625 4.733072916666666  C 0.38169642857142855 4.516059027777778  0.26227678571428575 4.253472222222222  0.15736607142857142 3.9453125  C 0.052455357142857144 3.637152777777777  0 3.3376736111111107  0 3.046875  C 0 2.0920138888888884  0.2834821428571428 1.3454861111111105  0.8504464285714286 0.8072916666666663  C 1.4174107142857144 0.2690972222222221  2.2008928571428568 0  3.2008928571428577 0  C 3.477678571428571 0  3.7600446428571423 0.046657986111110494  4.047991071428571 0.1399739583333337  C 4.3359375 0.2332899305555547  4.603794642857142 0.3591579861111105  4.8515625 0.517578125  C 5.099330357142858 0.6759982638888884  5.312500000000001 0.8246527777777768  5.491071428571429 0.9635416666666663  C 5.669642857142858 1.1024305555555547  5.839285714285714 1.25  6 1.40625  C 6.160714285714285 1.25  6.330357142857144 1.1024305555555547  6.508928571428571 0.9635416666666663  C 6.687500000000001 0.8246527777777768  6.900669642857143 0.6759982638888884  7.1484375 0.517578125  C 7.396205357142857 0.3591579861111105  7.6640625 0.2332899305555547  7.952008928571429 0.1399739583333337  C 8.239955357142858 0.046657986111110494  8.522321428571429 0  8.799107142857142 0  C 9.799107142857144 0  10.582589285714286 0.2690972222222221  11.149553571428571 0.8072916666666663  Z " fill-rule="nonzero" fill="#ffffff" stroke="none" transform="matrix(1 0 0 1 954 1196 )" />
  </g>
</svg>