<?xml version="1.0" encoding="utf-8"?>
<svg version="1.1" xmlns:xlink="http://www.w3.org/1999/xlink" width="30px" height="30px" xmlns="http://www.w3.org/2000/svg">
  <g transform="matrix(1 0 0 1 -277 -240 )">
    <path d="M 13.57421875 21.074218749999996  C 13.69140625 20.957031249999996  13.75 20.807291666666664  14 20.625  L 14 9.375  C 13.75 9.192708333333332  13.69140625 9.042968749999998  13.57421875 8.925781249999998  C 13.45703125 8.808593749999998  13.307291666666666 8.749999999999998  13.125 8.749999999999998  L 8.125 8.749999999999998  C 7.942708333333334 8.749999999999998  7.792968750000002 8.808593749999998  7.67578125 8.925781249999998  C 7.55859375 9.042968749999998  7.5 9.192708333333332  8 9.375  L 8 20.625  C 7.5 20.807291666666664  7.55859375 20.957031249999996  7.67578125 21.074218749999996  C 7.792968750000002 21.191406249999996  7.942708333333334 21.249999999999996  8.125 21.249999999999996  L 13.125 21.249999999999996  C 13.307291666666666 21.249999999999996  13.45703125 21.191406249999996  13.57421875 21.074218749999996  Z M 22.32421875 21.074218749999996  C 22.44140625 20.957031249999996  22.5 20.807291666666664  22 20.625  L 22 9.375  C 22.5 9.192708333333332  22.44140625 9.042968749999998  22.32421875 8.925781249999998  C 22.20703125 8.808593749999998  22.05729166666667 8.749999999999998  21.875 8.749999999999998  L 16.875 8.749999999999998  C 16.692708333333336 8.749999999999998  16.54296875 8.808593749999998  16.42578125 8.925781249999998  C 16.30859375 9.042968749999998  16.25 9.192708333333332  16 9.375  L 16 20.625  C 16.25 20.807291666666664  16.30859375 20.957031249999996  16.42578125 21.074218749999996  C 16.54296875 21.191406249999996  16.692708333333336 21.249999999999996  16.875 21.249999999999996  L 21.875 21.249999999999996  C 22.05729166666667 21.249999999999996  22.20703125 21.191406249999996  22.32421875 21.074218749999996  Z M 27.98828125 7.470703125  C 29.32942708333333 9.76888020833333  30 12.278645833333329  30 15  C 30 17.721354166666668  29.32942708333333 20.231119791666664  27.98828125 22.529296875  C 26.64713541666667 24.827473958333332  24.827473958333332 26.647135416666668  22.529296875 27.98828125  C 20.23111979166667 29.329427083333336  17.721354166666668 30  15 30  C 12.278645833333334 30  9.768880208333334 29.329427083333336  7.470703125 27.98828125  C 5.172526041666667 26.647135416666668  3.352864583333334 24.827473958333332  2.01171875 22.529296875  C 0.6705729166666665 20.231119791666664  0 17.721354166666668  0 15  C 0 12.278645833333329  0.6705729166666665 9.76888020833333  2.01171875 7.470703125  C 3.352864583333334 5.172526041666666  5.172526041666667 3.3528645833333304  7.470703125 2.011718749999999  C 9.768880208333334 0.6705729166666641  12.278645833333334 0  15 0  C 17.721354166666668 0  20.23111979166667 0.6705729166666641  22.529296875 2.011718749999999  C 24.827473958333332 3.3528645833333304  26.64713541666667 5.172526041666666  27.98828125 7.470703125  Z " fill-rule="nonzero" fill="#d9001b" stroke="none" transform="matrix(1 0 0 1 277 240 )" />
  </g>
</svg>