<?xml version="1.0" encoding="utf-8"?>
<svg version="1.1" xmlns:xlink="http://www.w3.org/1999/xlink" width="30px" height="33px" xmlns="http://www.w3.org/2000/svg">
  <g transform="matrix(1 0 0 1 -42 -918 )">
    <path d="M 13.179086538461538 3.0845424107142843  C 12.734375 2.5996093749999987  12.1875 2.357142857142856  11.538461538461538 2.357142857142856  C 10.901442307692308 2.357142857142856  10.357572115384615 2.5873325892857157  9.906850961538462 3.047712053571428  C 9.456129807692308 3.508091517857144  9.230769230769232 4.063616071428567  9.230769230769232 4.714285714285716  L 9.230769230769232 14.142857142857144  L 9.230769230769232 21.21428571428571  L 6.508413461538462 17.494419642857142  C 6.015625 16.83147321428571  5.372596153846154 16.5  4.579326923076923 16.5  C 3.9543269230769234 16.5  3.419471153846154 16.733258928571427  2.9747596153846154 17.19977678571429  C 2.530048076923077 17.666294642857142  2.307692307692308 18.218749999999996  2.307692307692308 18.857142857142858  C 2.307692307692308 19.385044642857142  2.463942307692308 19.857700892857142  2.776442307692308 20.275111607142858  L 9.699519230769232 29.703683035714285  C 10.15625 30.329799107142858  10.76923076923077 30.642857142857142  11.538461538461538 30  L 24.483173076923077 30  C 24.747596153846153 30.642857142857142  24.984975961538463 30.559988839285715  25.1953125 30.394252232142858  C 25.40564903846154 30.228515625  25.540865384615387 30.016741071428573  25.600961538461537 29.758928571428573  L 27.259615384615383 22.982142857142858  C 27.548076923076923 21.803571428571427  27.692307692307693 20.612723214285715  27.692307692307693 19.40959821428571  L 27.692307692307693 15.413504464285715  C 27.692307692307693 14.910156249999998  27.52403846153846 14.474330357142856  27.1875 14.106026785714285  C 26.85096153846154 13.737723214285715  26.442307692307693 13.553571428571429  25.961538461538463 13.553571428571429  C 25.480769230769234 13.553571428571429  25.072115384615387 13.725446428571425  24.735576923076923 14.069196428571429  C 24.399038461538463 14.412946428571427  24.23076923076923 14.830357142857142  24.23076923076923 15.321428571428571  L 23.653846153846153 15.321428571428571  L 23.653846153846153 14.198102678571429  C 23.653846153846153 13.608816964285715  23.461538461538463 13.10853794642857  23.076923076923077 12.697265625  C 22.692307692307693 12.285993303571427  22.211538461538463 12.080357142857144  21.634615384615383 12.080357142857144  C 21.08173076923077 12.080357142857144  20.606971153846153 12.282924107142856  20.210336538461537 12.688058035714285  C 19.813701923076923 13.093191964285715  19.615384615384617 13.578124999999998  19.615384615384617 14.142857142857144  L 19.615384615384617 15.321428571428571  L 19.038461538461537 15.321428571428571  L 19.038461538461537 13.6640625  C 19.038461538461537 12.988839285714285  18.81610576923077 12.408761160714285  18.37139423076923 11.923828125  C 17.926682692307693 11.438895089285712  17.379807692307693 11.196428571428571  16.73076923076923 11.196428571428571  C 16.09375 11.196428571428571  15.549879807692307 11.426618303571429  15.099158653846153 11.886997767857144  C 14.6484375 12.347377232142856  14.423076923076923 12.902901785714283  14.423076923076923 13.553571428571429  L 14.423076923076923 15.321428571428571  L 14 15.321428571428571  L 14 4.824776785714284  C 13.846153846153847 4.149553571428569  13.623798076923077 3.5694754464285694  13.179086538461538 3.0845424107142843  Z M 8.275240384615385 1.381138392857144  C 9.176682692307693 0.46037946428571586  10.264423076923077 0  11.538461538461538 0  C 12.824519230769232 0  13.915264423076923 0.4757254464285732  14.810697115384615 1.4271763392857157  C 15.70612980769231 2.378627232142855  16.153846153846153 3.511160714285711  16.153846153846153 4.824776785714284  L 16.153846153846153 8.876116071428571  C 16.418269230769234 8.851562499999998  16.610576923076927 8.839285714285715  16.73076923076923 8.839285714285715  C 17.920673076923077 8.839285714285715  18.96033653846154 9.262834821428571  19.849759615384617 10.109933035714285  C 20.414663461538463 9.852120535714285  21.009615384615387 9.723214285714285  21.634615384615383 9.723214285714285  C 22.992788461538463 9.723214285714285  24.098557692307693 10.257254464285715  24.951923076923077 11.325334821428571  C 25.276442307692307 11.23939732142857  25.61298076923077 11.196428571428571  25.961538461538463 11.196428571428571  C 27.091346153846153 11.196428571428571  28.046875 11.610770089285715  28.828125 12.439453125  C 29.609375000000004 13.268136160714285  30 14.259486607142858  30 15.413504464285715  L 30 19.40959821428571  C 30 20.833705357142854  29.83173076923077 22.214843749999996  29.495192307692307 23.553013392857142  L 27.836538461538463 30.329799107142858  C 27.64423076923077 31.115513392857142  27.235576923076923 31.756975446428573  26.610576923076923 32.254185267857146  C 25.985576923076927 32.751395089285715  25.276442307692307 33  24.483173076923077 33  L 11.538461538461538 33  C 10.817307692307692 33  10.129206730769232 32.83119419642857  9.474158653846153 32.493582589285715  C 8.819110576923078 32.15597098214286  8.275240384615387 31.698660714285715  7.842548076923077 31.121651785714285  L 0.9194711538461539 21.693080357142858  C 0.30649038461538464 20.858258928571427  0 19.91294642857143  0 18.857142857142858  C 0 17.568080357142858  0.44771634615384615 16.46010044642857  1.3431490384615385 15.533203125  C 2.238581730769231 14.60630580357143  3.317307692307692 14.142857142857144  4.579326923076923 14.142857142857144  C 5.432692307692308 14.142857142857144  6.213942307692308 14.357700892857142  7 14.787388392857144  L 7 4.714285714285716  C 6.923076923076923 3.4129464285714257  7.373798076923077 2.301897321428572  8.275240384615385 1.381138392857144  Z M 13.269230769230768 25.928571428571427  L 13.846153846153847 25.928571428571427  L 13.846153846153847 18.857142857142858  L 13.269230769230768 18.857142857142858  L 13.269230769230768 25.928571428571427  Z M 17.884615384615383 25.928571428571427  L 18.461538461538463 25.928571428571427  L 18.461538461538463 18.857142857142858  L 17.884615384615383 18.857142857142858  L 17.884615384615383 25.928571428571427  Z M 22.5 25.928571428571427  L 23.076923076923077 25.928571428571427  L 23.076923076923077 18.857142857142858  L 22.5 18.857142857142858  L 22.5 25.928571428571427  Z " fill-rule="nonzero" fill="#00ffff" stroke="none" transform="matrix(1 0 0 1 42 918 )" />
  </g>
</svg>